<?xml version="1.0" encoding="utf-8"?>
<!-- Generator: Adobe Illustrator 23.0.2, SVG Export Plug-In . SVG Version: 6.00 Build 0)  -->
<svg version="1.1" id="Layer_1" xmlns="http://www.w3.org/2000/svg" xmlns:xlink="http://www.w3.org/1999/xlink" x="0px" y="0px"
	 viewBox="0 0 210 100" style="enable-background:new 0 0 210 100;" xml:space="preserve">
<style type="text/css">
	.st0{fill:#231F20;}
</style>
<g>
	<path class="st0" d="M173.1,38.2c-7.1,0.2-11.9,5.3-11.8,12.4c0.1,6.9,4.9,11.5,11.7,11.5c7,0,11.9-4.9,11.8-12l0,0
		c0-0.2,0-0.5,0-0.7C184.7,43.1,179.4,38.1,173.1,38.2z"/>
	<path class="st0" d="M0,0.4v99.1c0,0,22-11.9,52.2-11.9c34.1,0,68.6,12.1,104.8,12.1c36.2,0,53-12.1,53-12.2V0.4
		C177,0.4,107,0.4,0,0.4z M85.1,71.7l-9.6,0l-0.1-22.3c0-2.9-0.5-6.3-2.4-8.5c-2.1-2-4.4-2.6-7.2-2.5c-4,0.1-8.6,1.9-9.6,6.4
		c-0.3,1.9-0.3,3.1-0.3,5.1l0,21.7h-9.7c0-8.3,0-15.9-0.1-24.3c0-2.2-0.6-4.4-1.8-6.3c-0.7-1-1.8-1.8-3-2.2
		c-1.2-0.4-2.4-0.5-3.6-0.5l-9.6,0L28,71.7h-9.8V29c2.5,0.5,4.3,1,6.7,1.6c0.9,0.2,1.7,0.2,2.6,0.2c2.4-0.3,4.8-0.8,7.2-1.4
		c5.7-1.3,13.9-0.9,17.6,4.6c0.4,0.5,0.8,1.3,1.1,2.1c2.6-4.1,7.2-6.2,12.2-6.6c2.8-0.4,5.9-0.2,8.6,0.4c5.4,1.3,9.5,5.9,10.2,11.4
		c0.5,3.1,0.7,6.3,0.6,9.5L85.1,71.7z M104.2,71.7h-9.6V30h9.6V71.7z M132.8,71.7c-5.7,0-11.2-2.3-15.2-6.3c-4-4-6.3-9.5-6.3-15.2
		c0-5.7,2.2-11.2,6.3-15.2c8.4-8.4,22-8.4,30.4,0l0.6,0.6l-6.7,6.8c-2.6-2.6-5.4-4.1-9.1-4.1c-7,0.1-11.6,5.1-11.7,11.9l0,0
		c0,0.4,0,0.9,0,1.3c0.3,6.2,5.5,10.9,11.7,10.6c4-0.2,6.3-1.1,9.2-4l6.6,6.6C144.2,69.1,139,71.6,132.8,71.7z M188.3,65.3
		c-4,4.1-9.5,6.4-15.3,6.3c-5.7,0-11.2-2.3-15.2-6.3c-4-4-6.3-9.5-6.3-15.2c0-5.7,2.2-11.2,6.2-15.2c0,0,0.1-0.1,0.1-0.1
		c8.4-8.4,22-8.3,30.3,0.1c4,4,6.3,9.5,6.3,15.2C194.6,55.8,192.4,61.3,188.3,65.3z"/>
</g>
</svg>
