<svg version="1.1" id="Layer_1" xmlns="http://www.w3.org/2000/svg" x="0" y="0" viewBox="0 0 141.6 141.6" style="enable-background:new 0 0 141.6 141.6" xml:space="preserve"><style>.st0{fill:#e20e18}</style><switch><g><path class="st0" d="M102.5 41.6c-1.4 0-3-.3-4-.7-3-1.1-5.5-3.6-6.6-6.6-.5-1.2-.7-3.3-.7-4.2V18.8H99v11.9c0 1.8 1.4 3.1 3.3 3.1h11.6v7.8h-11.4zm11.3 49.2c-14.5-.2-22.4-6.4-22.7-18.1V56.2c0-.9.2-3 .7-4.2 1.2-3.1 3.6-5.5 6.6-6.6 1.1-.4 2.6-.7 4-.7h11.3v7.8h-11.6c-1.9 0-3.3 1.3-3.3 3.1V72c0 4.8 1.6 11.1 14.8 11.2v7.6zm-62.2.1c-4.9 0-10.4-2.1-14.4-5.6l5.3-5.8c2.6 1.9 6.4 3.7 9.5 3.7 5.7 0 6.1-2.3 6.1-3 0-1-.6-1.8-1.9-2.4-1.2-.6-2.7-1.1-4.4-1.8-8-3-21.4-7.9-21.4-22.5 0-9.8 7-19.7 20.3-19.7h26.6c1.9 0 3.2-1.3 3.2-3.1V18.8h7.9V30c0 .8-.2 2.9-.7 4.2-1.1 3-3.5 5.5-6.6 6.6-1.2.5-2.5.7-3.9.7H51.7c-8 0-13.2 4.7-13.2 12 0 6.9 4.6 10.1 13.1 13.6l.8.3c8.4 3.4 14 5.6 14 12.4-.5 10.3-11.5 11.1-14.8 11.1m0 10.8c-7.5 0-16.2-3.3-21.8-8.2l5.3-5.9c4.7 4 10.8 6.3 16.5 6.3 10.9.1 17.4-5.2 17.4-14 0-8.7-6.9-11.5-13.5-14.2-1-.4-2-.8-3-1.3-8.3-3.6-11.2-5.8-11.2-11.1s3.9-8.7 10-8.7H77c1.4 0 2.7.3 3.9.7 3 1.1 5.4 3.6 6.6 6.6.5 1.3.7 2.5.7 3.8v16.1c0 14 9.1 21.8 25.7 21.9v7.8c-20.7-.1-33.6-11.2-33.6-28.8V55.4c0-1.8-1.3-3.2-3.1-3.2H50.6c-1.1 0-1.6.6-1.6 1.2 0 .8.6 1.2 1.6 1.6 1.5.7 3.2 1.3 5.1 2C65.2 60.6 77 65 77 79.7c-.1 13.9-9.6 22-25.4 22M97 120.1v-4.5l.1-.1c.3-.2.9-.5 1.8-.5.7 0 1.3.3 1.8.7.5.4.7 1.2.7 1.9 0 1.9-1.1 2.8-2.9 2.8-.5 0-1-.1-1.3-.2l-.2-.1zm7.3-2.5c0-1.4-.5-2.7-1.3-3.5-.9-.8-2.1-1.3-3.4-1.3-.8 0-1.6.1-2.1.4l-.4.2V109l-2.7.7V122c.9.3 2.2.7 4.1.7 3.6-.1 5.8-1.8 5.8-5.1M67.9 119c0-.5.2-1.3 1.1-1.8l.3-.1 2.9 3.1-.3.1c-.6.2-1.2.4-1.8.4-1.9 0-2.2-.9-2.2-1.7m2.8-4.3-.2.1c-.8-.8-1.3-1.2-1.3-2.1 0-.7.6-1.2 1.4-1.2.4 0 .7.1.9.3.3.2.5.6.5 1-.1 1-.5 1.4-1.3 1.9m2.7 7 .2-.1.8.8h3.2l-2.3-2.4.1-.2c.9-1.1 1.4-2.4 1.5-3.8h-2.2c-.1.8-.3 1.5-.6 2.1l-.2.3-2.1-2.3.3-.2c.7-.3 1.2-.7 1.5-1.2.5-.6.7-1.3.7-2.2 0-.9-.4-1.7-1.1-2.3-.7-.5-1.6-.8-2.7-.8-2.3 0-3.9 1.4-3.9 3.3 0 1.1.3 1.8 1.1 2.7l.2.3-.4.2c-1.7.7-2.3 1.6-2.3 3.2 0 1.1.4 2 1.2 2.6.8.6 1.8 1 3.2 1 1.4 0 2.7-.3 3.8-1M46.3 114.8c.9-.1 1.5.2 1.8.6.3.4.4 1 .4 1.6h-3.9c.1-1.5.7-2.1 1.7-2.2m.8 7.7c1.4 0 2.9-.6 3.6-1.3l-1-1.7c-.6.4-1.2.7-2.4.7s-2.3-.5-2.6-1.8h6.2s.2-.7.1-1.3c0-1.4-.3-2.2-.9-3-.7-.9-1.9-1.5-3.4-1.5-3 0-4.8 1.9-4.8 5.1 0 1.5.5 2.7 1.4 3.6.9.9 2.1 1.2 3.8 1.2M54.3 117c.1-1.5.7-2.1 1.7-2.2.9-.1 1.5.2 1.8.6.3.4.4 1 .4 1.6h-3.9zm6.3.2c0-1.4-.3-2.2-.9-3-.7-.9-1.9-1.5-3.4-1.5-3 0-4.8 1.9-4.8 5.1 0 1.5.5 2.7 1.4 3.6.9.9 2.2 1.2 3.8 1.2 1.4 0 2.9-.6 3.6-1.3l-1-1.7c-.6.4-1.2.7-2.4.7s-2.3-.5-2.6-1.8h6.2s.1-.7.1-1.3M107.5 117c.1-1.5.7-2.1 1.7-2.2.9-.1 1.5.2 1.8.6.3.4.4 1 .4 1.6h-3.9zm5.4-2.8c-.7-.9-1.9-1.5-3.4-1.5-3 0-4.8 1.9-4.8 5.1 0 1.5.5 2.7 1.4 3.6.9.9 2.2 1.2 3.8 1.2 1.4 0 2.9-.6 3.6-1.3l-1-1.7c-.6.4-1.2.7-2.4.7s-2.3-.5-2.6-1.8h6.2s.2-.7.1-1.3c0-1.4-.3-2.2-.9-3M36.5 110.4v2.4h-4.9c-1.2 0-3.9.3-3.9 3 0 1.7 1 2.6 3.3 2.9.8.1 1.5.3 1.5 1 0 .8-1 .8-1.5.8-.9 0-2.2-.4-3.2-.9v2.1c.8.4 2 .7 3.3.7 1.8 0 4-.5 4-2.9 0-1.5-.6-2.5-3.5-3-.6-.1-1.3-.3-1.3-.9 0-.3.1-.8 1.4-.8h4.7v4.4c0 2.7 2.1 3.2 3.4 3.2h1.8V120h-.9c-.5 0-.9-.1-1.1-.4-.3-.3-.5-.7-.5-1.3v-3.5h2.5v-2.2h-2.5v-3l-2.6.8zM61.4 122.5h2.8V109l-2.7.7zM78.3 110.4v9c0 2.7 2.1 3.2 3.4 3.2h1.8v-2.4h-.9c-.5 0-.9-.1-1.1-.4-.3-.3-.5-.7-.5-1.3V115H84.1v3.9c0 2.7 1.6 3.7 4.9 3.7 1.4 0 2.9-.2 3.9-.5v-9.3h-2.7v7.5H90c-.5.1-.8.1-1.1.1-1.6 0-2-.8-2-1.9v-5.8H81v-3l-2.7.7z"/></g></switch></svg>