<?xml version="1.0" encoding="UTF-8"?><svg id="Layer_1" xmlns="http://www.w3.org/2000/svg" viewBox="0 0 628.92 263.11"><defs><style>.cls-1{font-family:RigidSquare-Bold, 'Rigid Square';font-size:35px;font-weight:700;letter-spacing:.7em;}.cls-1,.cls-2{fill:teal;}.cls-3{fill:#231f20;}</style></defs><polygon class="cls-2" points="110.41 203.56 171.03 186.93 171.03 203.56 117.26 203.56 110.41 203.56"/><polygon class="cls-2" points="507.32 203.56 446.7 186.93 446.7 203.56 500.47 203.56 507.32 203.56"/><text class="cls-1" transform="translate(196.83 203.35)"><tspan x="0" y="0">HOMES</tspan></text><path class="cls-3" d="m110.98,85.58c-.03,10.24-.04,15.37-.07,25.61,10.06-1.3,20.15-2.49,30.24-3.57-.07,8.97-.1,13.46-.17,22.43-10.07,1.61-20.12,3.38-30.13,5.3l-.13,48.69c-5.16,1.65-7.69,2.48-12.87,4.25V61.42h48.05c-.07,8.88-.11,13.32-.18,22.2-11.58.61-23.16,1.27-34.74,1.96Z"/><path class="cls-3" d="m208.08,81.03l-.67,60.31c-4.82,8.46-7.23,12.78-12.05,21.64-9.76,1.74-19.51,3.72-29.17,5.94-4.61-7.41-6.91-11.19-11.51-18.96.2-22.27.41-44.55.61-66.82,4.79-8.92,7.19-13.26,11.99-21.73h29.22c4.63,8.01,6.94,11.92,11.58,19.61Zm-13.81,53.91c.17-15.08.34-30.15.51-45.23-1.9-3.2-2.85-4.81-4.75-8.06-6.69.25-10.03.39-16.72.67-1.97,3.52-2.96,5.29-4.93,8.88-.16,15.87-.32,31.74-.49,47.61,1.89,3.16,2.84,4.72,4.74,7.81,6.67-1.16,10.01-1.71,16.7-2.73,1.97-3.62,2.96-5.41,4.94-8.96Z"/><path class="cls-3" d="m270.78,61.42c-.15,24.72-.31,49.44-.46,74.17-4.81,7.53-7.22,11.35-12.04,19.1-10.57.89-15.85,1.44-26.39,2.75-4.68-6.98-7.01-10.5-11.67-17.65.28-26.12.56-52.24.84-78.36h13.2c-.23,23.07-.46,46.13-.69,69.2,1.92,2.93,2.88,4.39,4.8,7.29,5.5-.51,8.25-.74,13.75-1.15,2.23-3.59,3.34-5.37,5.57-8.9.17-22.14.34-44.29.51-66.43h12.59Z"/><path class="cls-3" d="m336.17,61.42c.1,30.42.2,60.85.3,91.27-4.39-.14-6.58-.2-10.97-.27-9.3-19.83-18.61-39.66-27.87-59.51-.05,19.88-.1,39.76-.15,59.63-5.1.13-7.65.22-12.75.44.13-30.52.26-61.04.4-91.57h12.24c8.72,18.89,17.51,37.74,26.31,56.59-.03-18.86-.05-37.73-.08-56.59h12.59Z"/><path class="cls-3" d="m402.47,80.5c.2,19.56.41,39.11.61,58.67-4.66,7.12-7,10.63-11.69,17.6-13.16-1.52-26.36-2.66-39.59-3.4-.16-30.65-.33-61.3-.49-91.96h39.17c4.79,7.51,7.19,11.32,11.99,19.08Zm-13.15,7.38c-1.97-3.14-2.95-4.7-4.92-7.81-7.9-.17-11.85-.24-19.76-.36l.4,56.25c7.96.49,11.94.78,19.88,1.46,1.92-2.9,2.88-4.35,4.8-7.27-.13-14.09-.27-28.18-.4-42.28Z"/><path class="cls-3" d="m455.31,167.32c-4.14-13.63-8.35-27.24-12.63-40.83-5.17-.64-7.76-.94-12.94-1.51.14,12.48.28,24.95.42,37.43-5.29-.93-7.94-1.37-13.25-2.19-.36-32.93-.73-65.87-1.09-98.8h40.31c4.02,7,6.02,10.57,10.03,17.88.11,10.8.21,21.6.32,32.4-3.76,6.61-5.63,9.85-9.39,16.21,4.37,14.22,8.65,28.46,12.85,42.74-5.84-1.39-8.76-2.06-14.62-3.32Zm-25.8-62.09c8.32.63,12.47.98,20.77,1.73,1.17-2.05,1.76-3.09,2.93-5.16-.06-5.78-.09-8.67-.15-14.44-1.22-2.11-1.83-3.16-3.05-5.25-8.3-.34-12.46-.5-20.77-.79.11,9.56.16,14.35.27,23.91Z"/><path class="cls-3" d="m530.93,61.42c-7.12,22.11-14.46,44.14-22.07,66.09.08,17.92.16,35.84.23,53.75-5.18-1.57-7.77-2.33-12.97-3.8l-.34-52.05c-7.27-21.45-14.85-42.77-22.77-63.99h15.58c4.83,13.91,9.54,27.85,14.13,41.84,4.59-13.92,9.08-27.87,13.51-41.84h14.7Z"/></svg>