<?xml version="1.0" encoding="UTF-8"?>
<svg data-bbox="37.92 13.47 275.75 93.05" viewBox="0 0 351.59 120" xmlns="http://www.w3.org/2000/svg" data-type="shape">
    <g>
        <path d="m44.41 106.52 38.6-10.58v10.58z"/>
        <path d="m297.11 106.52-38.6-10.58v10.58z"/>
        <path d="M114.28 91.24v15.16h-3.35v-6.2h-6.24v6.2h-3.35V91.24h3.35v5.97h6.24v-5.97z"/>
        <path d="M146.68 94.23v9.18l-2.99 2.99h-7.4l-2.99-2.99v-9.18l2.99-2.99h7.4zm-3.34 7.95v-6.73l-1.23-1.23h-4.24l-1.23 1.23v6.73l1.23 1.23h4.24z"/>
        <path d="M181.45 106.4h-3.35v-9.47l-3.9 7.32h-1.41l-3.9-7.32v9.47h-3.19V91.24h3.37l4.5 8.45 4.5-8.45h3.37v15.16Z"/>
        <path d="M204.21 94.23v3.08h7.71v2.99h-7.71v3.12h8.83v2.99h-12.17V91.25h12.17v2.99h-8.83Z"/>
        <path d="M244.21 99.82v4.03l-2.54 2.54h-8.31l-2.39-2.39 2.28-2.27 1.72 1.72h5.06l.85-.85v-1.56l-.62-.62-6.56-.4-2.32-2.32v-3.92l2.54-2.54h7.78l2.29 2.29-2.27 2.27-1.63-1.63h-4.52l-.85.85v1.45l.62.62 6.56.4 2.32 2.32Z"/>
        <path d="M46.3 28.87c-.02 6.52-.02 9.78-.05 16.31 7.69-.98 11.53-1.44 19.25-2.27-.04 5.71-.06 8.57-.11 14.28-7.69 1.24-11.53 1.91-19.19 3.38l-.09 31c-3.28 1.05-4.9 1.58-8.19 2.7V13.48h30.59c-.05 5.65-.07 8.49-.12 14.14-7.37.37-14.75.79-22.11 1.25z"/>
        <path d="M108.11 25.98c-.14 12.8-.28 25.6-.43 38.4-3.07 5.39-4.6 8.14-7.67 13.78-7.45 1.34-11.17 2.1-18.57 3.78-2.93-4.71-4.4-7.13-7.33-12.08l.39-42.54c3.05-5.68 4.58-8.44 7.63-13.84h18.6c2.95 5.09 4.42 7.59 7.37 12.49v.02ZM99.32 60.3c.11-9.6.21-19.19.32-28.79-1.21-2.03-1.81-3.06-3.02-5.13-4.26.16-6.39.25-10.64.43-1.26 2.24-1.88 3.37-3.13 5.65-.1 10.11-.21 20.21-.31 30.31 1.2 2.01 1.81 3.01 3.01 4.97C89.8 67 91.92 66.66 96.18 66c1.26-2.3 1.88-3.45 3.14-5.7"/>
        <path d="M148.03 13.48c-.09 15.74-.2 31.48-.29 47.22-3.06 4.8-4.59 7.22-7.67 12.16-6.73.57-10.09.92-16.81 1.75a730 730 0 0 1-7.43-11.24l.54-49.89h8.41c-.14 14.69-.29 29.37-.43 44.06 1.22 1.87 1.83 2.79 3.05 4.64 3.5-.32 5.25-.47 8.75-.74 1.42-2.29 2.13-3.42 3.54-5.67.11-14.1.22-28.19.32-42.29z"/>
        <path d="M189.66 13.48c.06 19.37.13 38.74.19 58.11-2.79-.09-4.19-.13-6.98-.17-5.92-12.63-11.85-25.25-17.74-37.89l-.09 37.97c-3.25.08-4.87.14-8.12.28.09-19.43.17-38.86.25-58.29h7.79c5.54 12.03 11.14 24.03 16.75 36.03-.02-12.01-.03-24.02-.05-36.03h8.01Z"/>
        <path d="m231.87 25.64.39 37.35c-2.97 4.53-4.46 6.77-7.44 11.21-8.36-1-16.81-1.72-25.2-2.16-.1-19.52-.21-39.03-.32-58.55h24.94c3.05 4.78 4.58 7.21 7.63 12.15m-8.37 4.69c-1.26-2-1.88-2.99-3.13-4.97-5.03-.1-7.54-.15-12.58-.23.09 11.93.17 23.88.25 35.81 5.07.31 7.6.5 12.66.93 1.23-1.84 1.83-2.77 3.06-4.63l-.25-26.91Z"/>
        <path d="M265.51 80.91c-2.64-8.68-5.32-17.34-8.04-25.99-3.3-.4-4.94-.6-8.24-.96l.27 23.83c-3.37-.59-5.05-.87-8.43-1.39-.23-20.97-.46-41.94-.7-62.9h25.66c2.55 4.46 3.84 6.73 6.39 11.38.08 8.25.12 12.38.21 20.63-2.39 4.21-3.59 6.27-5.98 10.32 2.8 9.05 5.53 18.12 8.18 27.2-3.72-.89-5.58-1.31-9.31-2.11Zm-16.42-39.53c5.3.4 7.94.62 13.22 1.1.74-1.3 1.12-1.96 1.87-3.29-.04-3.68-.06-5.52-.09-9.2-.78-1.34-1.16-2.02-1.94-3.34-5.29-.21-7.93-.32-13.22-.5.07 6.09.1 9.13.17 15.22Z"/>
        <path d="M313.66 13.48c-4.54 14.08-9.21 28.1-14.05 42.07l.15 34.22c-3.3-1-4.95-1.49-8.26-2.42l-.21-33.14c-4.63-13.66-9.46-27.23-14.5-40.74h9.92q4.665 13.26 9 26.64c2.94-8.86 5.8-17.74 8.6-26.64h9.36Z"/>
    </g>
</svg>
