<?xml version="1.0" encoding="UTF-8"?>
<svg data-bbox="0.97 1.02 348.67 117.66" viewBox="0 0 351.59 120" xmlns="http://www.w3.org/2000/svg" data-type="color">
    <g>
        <path fill="#ffffff" d="m9.17 118.68 48.81-13.39v13.39z" data-color="1"/>
        <path fill="#ffffff" d="m328.7 118.68-48.8-13.39v13.39z" data-color="1"/>
        <path d="M97.52 99.35v19.17h-4.23v-7.84H85.4v7.84h-4.23V99.35h4.23v7.55h7.89v-7.55z" fill="#ffffff" data-color="1"/>
        <path d="M138.49 103.13v11.61l-3.78 3.78h-9.36l-3.78-3.78v-11.61l3.78-3.78h9.36zm-4.23 10.06v-8.51l-1.55-1.55h-5.36l-1.55 1.55v8.51l1.55 1.55h5.36z" fill="#ffffff" data-color="1"/>
        <path d="M182.45 118.52h-4.23v-11.98l-4.93 9.25h-1.78l-4.93-9.25v11.98h-4.03V99.35h4.26l5.69 10.68 5.69-10.68h4.26z" fill="#ffffff" data-color="1"/>
        <path d="M211.24 103.13v3.89h9.75v3.78h-9.75v3.95h11.16v3.78h-15.39V99.36h15.39v3.78h-11.16Z" fill="#ffffff" data-color="1"/>
        <path d="M261.82 110.2v5.1l-3.21 3.21H248.1l-3.02-3.02 2.88-2.87 2.17 2.17h6.4l1.07-1.07v-1.97l-.79-.79-8.29-.51-2.93-2.93v-4.96l3.21-3.21h9.84l2.9 2.9-2.87 2.87-2.06-2.06h-5.72l-1.07 1.07v1.83l.79.79 8.29.51 2.93 2.93Z" fill="#ffffff" data-color="1"/>
        <path d="M11.56 20.49c-.02 8.25-.03 12.37-.06 20.62 9.72-1.24 14.58-1.82 24.34-2.87-.05 7.22-.08 10.84-.14 18.06-9.73 1.57-14.58 2.42-24.26 4.27-.04 13.07-.07 26.13-.11 39.2-4.15 1.33-6.19 2-10.36 3.42V1.03h38.68l-.15 17.88c-9.32.47-18.65 1-27.96 1.58Z" fill="#ffffff" data-color="1"/>
        <path d="m89.72 16.83-.54 48.55a851 851 0 0 0-9.7 17.42c-9.42 1.7-14.12 2.66-23.48 4.78-3.71-5.96-5.56-9.01-9.27-15.27.16-17.93.33-35.86.49-53.79 3.86-7.18 5.79-10.67 9.65-17.5h23.52c3.73 6.44 5.59 9.6 9.32 15.79Zm-11.11 43.4c.14-12.14.27-24.27.41-36.41-1.53-2.57-2.29-3.87-3.82-6.49-5.39.2-8.08.31-13.46.54-1.59 2.83-2.38 4.26-3.96 7.15l-.39 38.33c1.52 2.54 2.29 3.8 3.81 6.29 5.37-.93 8.06-1.37 13.44-2.2 1.59-2.91 2.38-4.36 3.97-7.21" fill="#ffffff" data-color="1"/>
        <path d="M140.2 1.03c-.12 19.9-.25 39.8-.37 59.71-3.87 6.07-5.81 9.13-9.7 15.37-8.51.72-12.76 1.16-21.25 2.21-3.77-5.62-5.65-8.45-9.4-14.21.23-21.03.45-42.06.68-63.08h10.63c-.18 18.57-.37 37.14-.55 55.71 1.54 2.36 2.32 3.53 3.86 5.87 4.42-.41 6.64-.59 11.07-.93 1.79-2.89 2.69-4.32 4.48-7.17.14-17.83.28-35.65.41-53.48h10.13Z" fill="#ffffff" data-color="1"/>
        <path d="m192.84 1.03.24 73.48c-3.53-.12-5.3-.16-8.83-.22-7.49-15.97-14.98-31.93-22.43-47.91l-.12 48.01c-4.11.1-6.16.18-10.27.36.11-24.57.21-49.14.32-73.71h9.85c7.01 15.21 14.09 30.39 21.18 45.56l-.06-45.56h10.13Z" fill="#ffffff" data-color="1"/>
        <path d="M246.21 16.4c.16 15.74.33 31.49.49 47.23-3.76 5.73-5.64 8.56-9.41 14.17a486 486 0 0 0-31.87-2.73c-.13-24.68-.26-49.35-.4-74.03h31.53c3.86 6.05 5.79 9.12 9.65 15.36Zm-10.58 5.93c-1.59-2.53-2.38-3.78-3.96-6.28-6.36-.13-9.54-.19-15.91-.29.11 15.09.21 30.19.32 45.28 6.41.39 9.61.63 16.01 1.17 1.55-2.33 2.32-3.5 3.87-5.85l-.32-34.03Z" fill="#ffffff" data-color="1"/>
        <path d="M288.75 86.29c-3.34-10.97-6.73-21.93-10.17-32.87-4.17-.51-6.25-.76-10.42-1.22.11 10.04.23 20.09.34 30.13-4.26-.75-6.39-1.1-10.66-1.76-.29-26.51-.58-53.03-.88-79.54h32.45c3.23 5.64 4.85 8.51 8.08 14.39.1 10.43.15 15.65.26 26.09-3.02 5.32-4.54 7.93-7.56 13.05 3.54 11.44 6.99 22.91 10.34 34.4-4.7-1.12-7.05-1.66-11.77-2.67ZM267.98 36.3c6.7.51 10.04.79 16.72 1.39.94-1.65 1.42-2.48 2.36-4.16-.05-4.65-.07-6.98-.12-11.63-.98-1.7-1.47-2.55-2.45-4.22-6.69-.27-10.03-.4-16.72-.63.09 7.7.13 11.55.22 19.25Z" fill="#ffffff" data-color="1"/>
        <path d="M349.63 1.03c-5.74 17.8-11.65 35.53-17.76 53.2l.19 43.27a442 442 0 0 0-10.44-3.06l-.27-41.9a1843 1843 0 0 0-18.33-51.52h12.54a1480 1480 0 0 1 11.38 33.68c3.72-11.2 7.34-22.43 10.87-33.68h11.83Z" fill="#ffffff" data-color="1"/>
    </g>
</svg>
