<?xml version="1.0" encoding="UTF-8"?>
<svg data-bbox="0 0 150 35" viewBox="0 0 150 35" height="35" width="150" xmlns="http://www.w3.org/2000/svg" data-type="color">
    <g>
        <path d="M150 0v35H0V0z" fill="#000000" data-color="1"/>
        <path d="M65.238 12.046V7.738h-11.64a1.89 1.89 0 0 0-1.856 1.892l-.001 2.416h4.206v15.251h5.092V12.046z" fill="#FFFFFF" data-color="2"/>
        <path d="m41.356 7.739-5.596-.005c-.969 0-1.799.573-2.185 1.396l-3.527 7.83-.015-9.227h-5.267a2.41 2.41 0 0 0-2.184 1.396h-.006L14.414 27.27l5.511.01 5.647-12.082.018 12.078h4.871l5.907-12.044-.015 12.052h5.003z" fill="#FFFFFF" data-color="2"/>
        <path d="M49.594 7.738 46.4 7.734c-1.044 0-1.89.844-1.895 1.887h-.002v17.676h5.091z" fill="#FFFFFF" data-color="2"/>
        <path d="M90.141 22.982v-3.369h5.743v-4.307h-5.743v-3.265h6.051V7.733h-9.234v.001l-.008-.001A1.895 1.895 0 0 0 85.057 9.6h-.004v17.692h11.138v-4.311z" fill="#FFFFFF" data-color="2"/>
        <path d="M81.805 13.751c0-4.177-2.924-6.017-6.787-6.017h-5.707v.002l-.019-.002a1.895 1.895 0 0 0-1.896 1.895v17.662h5.089V19.77h.054l4.805 7.521h6.331l-6.146-8.016c2.765-.494 4.276-2.82 4.276-5.524m-9.323 3.228v-.004zm4.028-2.915c0 2.129-1.858 2.441-3.527 2.441l-.025-.005a.474.474 0 0 0-.475.474l.003-5.352h.496c1.669.001 3.528.316 3.528 2.442" fill="#FFFFFF" data-color="2"/>
        <path d="M112.702 27.285V7.734h-6.29v.002l-.019-.002a1.896 1.896 0 0 0-1.896 1.895v2.31h3.102v15.347z" fill="#EF7D00" data-color="3"/>
        <path d="M135.586 17.5a9.9 9.9 0 0 0-1.805-5.688l-3.679 3.684a5.236 5.236 0 0 1-6.829 6.829l-2.569 2.574-.005-.006a1.88 1.88 0 0 1-2.298.168 10.4 10.4 0 0 0 6.857 2.566c5.704.002 10.328-4.533 10.328-10.127m-4.335-7.72c.379 0 .731.114 1.028.306a10.4 10.4 0 0 0-7.021-2.715c-5.705 0-10.33 4.535-10.33 10.129 0 2.197.722 4.227 1.935 5.885l3.666-3.664a5.2 5.2 0 0 1-.509-2.24 5.237 5.237 0 0 1 5.237-5.238c.804 0 1.562.186 2.242.51l2.462-2.471.008.007a1.88 1.88 0 0 1 1.282-.509" fill="#EF7D00" data-color="3"/>
    </g>
</svg>
